<svg xmlns="http://www.w3.org/2000/svg" version="1.1" xmlns:xlink="http://www.w3.org/1999/xlink" xmlns:svgjs="http://svgjs.dev/svgjs" width="1000" height="133" viewBox="0 0 1000 133"><g transform="matrix(1,0,0,1,-0.606050725271416,-0.19429919279212982)"><svg viewBox="0 0 396 53" data-background-color="#ffffff" preserveAspectRatio="xMidYMid meet" height="133" width="1000" xmlns="http://www.w3.org/2000/svg" xmlns:xlink="http://www.w3.org/1999/xlink"><g id="tight-bounds" transform="matrix(1,0,0,1,0.2399960872074871,0.07742749787956882)"><svg viewBox="0 0 395.52 52.84514500424085" height="52.84514500424085" width="395.52"><g><svg viewBox="0 0 395.52000000000004 52.845145004240855" height="52.84514500424085" width="395.52"><g><svg viewBox="0 0 395.52000000000004 52.845145004240855" height="52.845145004240855" width="395.52000000000004"><g><svg viewBox="0 0 395.52000000000004 52.845145004240855" height="52.845145004240855" width="395.52000000000004"><g><rect width="75.54432000000001" height="3.1554299248648303" y="46.469977109218" fill="#e65728" data-fill-palette-color="tertiary"></rect><rect width="75.54432000000001" height="3.1554299248648303" y="46.469977109218" x="319.97568" fill="#e65728" data-fill-palette-color="tertiary"></rect></g><g><svg viewBox="0 0 395.52000000000004 34.989951377633716" height="34.989951377633716" width="395.52000000000004"><g transform="matrix(1,0,0,1,0,0)"><svg width="395.52000000000004" viewBox="-12.5 -32 370.17999267578125 32.75" height="34.989951377633716" data-palette-color="#e65728"><path d="M15.7-31.25L31.1-31.25Q34.7-31.25 36.33-30 37.95-28.75 37.95-26.15L37.95-26.15Q37.95-22.35 36.27-19.9 34.6-17.45 32.2-16.85L32.2-16.85 32.15-16.55Q36.65-15.7 36.65-10.6L36.65-10.6Q36.65-6.1 34.2-3.05 31.75 0 27.3 0L27.3 0 10.2 0 15.7-31.25ZM25.6-12.45L25.6-12.45 21.85-12.45 20.95-7.35 24.65-7.35Q25.9-7.35 26.55-8.35 27.2-9.35 27.2-10.9 27.2-12.45 25.6-12.45ZM27-24.4L27-24.4 24-24.4 23.15-19.75 26.1-19.75Q28.4-19.75 28.4-23L28.4-23Q28.4-24.4 27-24.4ZM9.1-2.4L8.7-0.15-12.5-2.4 9.1-2.4ZM10.8-12.05L10.4-9.8-10.8-12.05 10.8-12.05ZM11.65-16.85L11.25-14.6-9.95-16.85 11.65-16.85ZM12.5-21.65L12.1-19.4-9.1-21.65 12.5-21.65ZM13.3-26.45L12.95-24.2-8.25-26.45 13.3-26.45ZM9.95-7.25L9.55-5-11.65-7.25 9.95-7.25ZM14.15-31.25L13.75-29-7.4-31.25 14.15-31.25ZM60.25-4.95L58.3 0 48.3 0 61.45-31.25 76.15-31.25 78.35 0 68.3 0 68.1-4.95 60.25-4.95ZM63.35-12.9L67.35-12.9 67.35-21.65 66.85-21.65 63.35-12.9ZM47.65-2.4L46.7-0.2 26.2-2.4 47.65-2.4ZM49.7-7.25L48.75-5.05 28.25-7.25 49.7-7.25ZM51.7-12.05L50.8-9.85 30.3-12.05 51.7-12.05ZM53.75-16.85L52.8-14.65 32.35-16.85 53.75-16.85ZM55.75-21.65L54.85-19.45 34.4-21.65 55.75-21.65ZM59.8-31.25L58.9-29.1 38.5-31.25 59.8-31.25ZM57.75-26.45L56.85-24.3 36.45-26.45 57.75-26.45ZM38.5-31.25L58.9-29.1 59.8-31.25 38.5-31.25ZM94.15-19.4L94.15-19.4 72.95-21.65 94.5-21.65Q94.25-20.65 94.15-19.4ZM74.34-26.45L95.84-26.45 95.09-24.25 74.34-26.45ZM73.4-16.85L94.15-16.85Q94.25-15.5 94.55-14.6L94.55-14.6 73.4-16.85ZM101.15-9.8L101.15-9.8 74.7-12.05 96.25-12.05Q97.9-10.45 101.15-9.8ZM78.09-31.25L99.59-31.25Q98.45-30.5 97.4-29.2L97.4-29.2 78.09-31.25ZM91.8-5.05L73.84-7.25 92.55-7.25 91.8-5.05ZM90.2-0.2L73-2.4 90.95-2.4 90.2-0.2ZM91.9-0.55L94.7-8.8Q98.9-7.65 102.37-7.65 105.84-7.65 108.05-7.95L108.05-7.95 108.45-10.45 104.3-10.85Q99.55-11.3 97.57-13 95.59-14.7 95.59-17.8L95.59-17.8Q95.59-19.15 95.9-20.8L95.9-20.8Q97.05-27.2 100.09-29.6 103.15-32 109.47-32 115.8-32 120.65-30.75L120.65-30.75 118.05-22.75Q113.7-23.5 111.07-23.5 108.45-23.5 106.55-23.25L106.55-23.25 106.15-20.8 109.5-20.45Q114.59-19.9 116.75-18.03 118.9-16.15 118.9-13L118.9-13Q118.9-9.8 117.55-6.4L117.55-6.4Q116.8-4.65 115.97-3.48 115.15-2.3 113.87-1.48 112.59-0.65 111.55-0.23 110.5 0.2 108.84 0.4L108.84 0.4Q106.55 0.75 103.15 0.75L103.15 0.75Q96.95 0.75 91.9-0.55L91.9-0.55ZM153.69-19.05L152.39-11.8 142.89-11.8 142.24-8 153.89-8 152.49 0 131.34 0 136.84-31.25 157.74-31.25 155.14-23.25 144.89-23.25 144.19-19.05 153.69-19.05ZM130.24-2.4L129.84-0.15 108.64-2.4 130.24-2.4ZM131.94-12.05L131.54-9.8 110.34-12.05 131.94-12.05ZM132.79-16.85L132.39-14.6 111.19-16.85 132.79-16.85ZM133.64-21.65L133.24-19.4 112.04-21.65 133.64-21.65ZM134.44-26.45L134.09-24.2 112.89-26.45 134.44-26.45ZM131.09-7.25L130.69-5 109.49-7.25 131.09-7.25ZM135.29-31.25L134.89-29 113.74-31.25 135.29-31.25ZM173.14-31.25L188.54-31.25Q192.14-31.25 193.77-30 195.39-28.75 195.39-26.15L195.39-26.15Q195.39-22.35 193.72-19.9 192.04-17.45 189.64-16.85L189.64-16.85 189.59-16.55Q194.09-15.7 194.09-10.6L194.09-10.6Q194.09-6.1 191.64-3.05 189.19 0 184.74 0L184.74 0 167.64 0 173.14-31.25ZM183.04-12.45L183.04-12.45 179.29-12.45 178.39-7.35 182.09-7.35Q183.34-7.35 183.99-8.35 184.64-9.35 184.64-10.9 184.64-12.45 183.04-12.45ZM184.44-24.4L184.44-24.4 181.44-24.4 180.59-19.75 183.54-19.75Q185.84-19.75 185.84-23L185.84-23Q185.84-24.4 184.44-24.4ZM166.54-2.4L166.14-0.15 144.94-2.4 166.54-2.4ZM168.24-12.05L167.84-9.8 146.64-12.05 168.24-12.05ZM169.09-16.85L168.69-14.6 147.49-16.85 169.09-16.85ZM169.94-21.65L169.54-19.4 148.34-21.65 169.94-21.65ZM170.74-26.45L170.39-24.2 149.19-26.45 170.74-26.45ZM167.39-7.25L166.99-5 145.79-7.25 167.39-7.25ZM171.59-31.25L171.19-29 150.04-31.25 171.59-31.25ZM208.44-21.65L208.04-19.4 186.84-21.65 208.44-21.65ZM207.59-16.85L207.19-14.6 186.04-16.85 207.59-16.85ZM210.14-31.25L209.74-29 188.59-31.25 210.14-31.25ZM208.89-24.2L187.74-26.45 209.29-26.45 208.89-24.2ZM185.34-12.05L206.74-12.05Q206.54-10.4 206.49-9.8L206.49-9.8 185.34-12.05ZM185.39-7.25L206.39-7.25Q206.39-6.05 206.54-5L206.54-5 185.39-7.25ZM187.69-2.4L207.24-2.4Q207.89-1 208.84-0.15L208.84-0.15 187.69-2.4ZM217.04-7.8L220.44-7.8Q222.19-7.8 222.94-8.28 223.69-8.75 223.99-10.45L223.99-10.45 227.69-31.25 237.19-31.25 234.09-13.7Q233.34-9.45 232.36-6.85 231.39-4.25 229.64-2.45 227.89-0.65 225.31 0.05 222.74 0.75 218.79 0.75L218.79 0.75Q212.74 0.75 210.31-1.07 207.89-2.9 207.89-7.35L207.89-7.35Q207.89-9.8 208.59-13.7L208.59-13.7 211.69-31.25 221.19-31.25 217.04-7.8ZM252.54-31.25L265.84-31.25Q272.29-31.25 275.01-28.98 277.74-26.7 277.74-21.6L277.74-21.6Q277.74-19 277.14-15.6L277.14-15.6Q275.64-7.2 272.01-3.6 268.39 0 260.34 0L260.34 0 247.04 0 252.54-31.25ZM264.54-23.25L264.54-23.25 260.59-23.25 257.94-8 261.89-8Q263.84-8 264.79-8.47 265.74-8.95 266.04-10.65L266.04-10.65 267.79-20.6Q267.84-20.9 267.84-21.4L267.84-21.4Q267.84-22.55 267.04-22.9 266.24-23.25 264.54-23.25ZM245.94-2.4L245.54-0.15 224.34-2.4 245.94-2.4ZM247.64-12.05L247.24-9.8 226.04-12.05 247.64-12.05ZM248.49-16.85L248.09-14.6 226.89-16.85 248.49-16.85ZM249.34-21.65L248.94-19.4 227.74-21.65 249.34-21.65ZM250.14-26.45L249.79-24.2 228.59-26.45 250.14-26.45ZM246.79-7.25L246.39-5 225.19-7.25 246.79-7.25ZM250.99-31.25L250.59-29 229.44-31.25 250.99-31.25ZM294.58-31.25L307.88-31.25Q314.33-31.25 317.06-28.98 319.78-26.7 319.78-21.6L319.78-21.6Q319.78-19 319.18-15.6L319.18-15.6Q317.68-7.2 314.06-3.6 310.43 0 302.38 0L302.38 0 289.08 0 294.58-31.25ZM306.58-23.25L306.58-23.25 302.63-23.25 299.98-8 303.93-8Q305.88-8 306.83-8.47 307.78-8.95 308.08-10.65L308.08-10.65 309.83-20.6Q309.88-20.9 309.88-21.4L309.88-21.4Q309.88-22.55 309.08-22.9 308.28-23.25 306.58-23.25ZM287.98-2.4L287.58-0.15 266.38-2.4 287.98-2.4ZM289.68-12.05L289.28-9.8 268.08-12.05 289.68-12.05ZM290.53-16.85L290.13-14.6 268.93-16.85 290.53-16.85ZM291.38-21.65L290.98-19.4 269.78-21.65 291.38-21.65ZM292.18-26.45L291.83-24.2 270.63-26.45 292.18-26.45ZM288.83-7.25L288.43-5 267.23-7.25 288.83-7.25ZM293.03-31.25L292.63-29 271.48-31.25 293.03-31.25ZM332.98-2.4L332.58-0.15 311.43-2.4 332.98-2.4ZM333.78-7.25L333.43-5 312.28-7.25 333.78-7.25ZM333.33-12.05L333.78-9.8 312.58-12.05 333.33-12.05ZM332.38-16.85L332.83-14.6 311.63-16.85 332.38-16.85ZM309.78-26.45L330.48-26.45 330.93-24.2 309.78-26.45ZM310.73-21.65L331.43-21.65 331.88-19.4 310.73-21.65ZM329.58-31.25L330.03-29 308.88-31.25 329.58-31.25ZM331.08-31.25L341.58-31.25 342.23-20.25 342.58-20.25 347.18-31.25 357.68-31.25 345.08-8.5 343.63 0 334.13 0 335.58-8.5 331.08-31.25Z" opacity="1" transform="matrix(1,0,0,1,0,0)" fill="#e65728" class="undefined-text-0" data-fill-palette-color="primary" id="text-0"></path></svg></g></svg></g><g transform="matrix(1,0,0,1,75.54432000000001,43.25023913905997)"><svg viewBox="0 0 244.43136 9.594905865180884" height="9.594905865180884" width="244.43136"><g transform="matrix(1,0,0,1,8,0)"><svg width="228.43136" viewBox="5.420000076293945 -40.5 1244.3399658203125 52.27000045776367" height="9.594905865180884" data-palette-color="#e65728"><path d="M5.42 0L5.42-38.16 37.92-38.16 37.92-31.37 13.16-31.37 13.16-23.75 35.08-23.75 35.08-17.38 13.16-17.38 13.16-6.76 38.43-6.76 38.43 0 5.42 0ZM42.11 0L53.59-14.4 41.67-28.83 50.9-28.83 58.13-20.04 64.99-28.83 74-28.83 62.79-14.43 74.7 0 65.48 0 58.03-9.01 51.12 0 42.11 0ZM86.35-2.08L86.35 11.77 79.12 11.77 79.12-28.81 86.35-28.81 86.35-26.1Q87.3-26.76 88.59-27.34 89.89-27.93 91.38-28.37 92.87-28.81 94.45-29.06 96.04-29.32 97.63-29.32L97.63-29.32Q101.29-29.32 104.35-28.25 107.42-27.17 109.61-25.22 111.81-23.27 113.04-20.54 114.28-17.82 114.28-14.53L114.28-14.53Q114.28-11.08 112.98-8.31 111.69-5.54 109.41-3.58 107.12-1.61 103.99-0.55 100.85 0.51 97.19 0.51L97.19 0.51Q95.62 0.51 94.1 0.32 92.57 0.12 91.17-0.22 89.77-0.56 88.53-1.04 87.3-1.51 86.35-2.08L86.35-2.08ZM86.35-19.04L86.35-9.06Q87.45-8.18 88.67-7.57 89.89-6.96 91.16-6.57 92.43-6.18 93.72-5.99 95.01-5.81 96.24-5.81L96.24-5.81Q98.73-5.81 100.67-6.48 102.61-7.15 103.94-8.33 105.27-9.5 105.98-11.08 106.68-12.67 106.68-14.53L106.68-14.53Q106.68-16.26 105.99-17.8 105.29-19.34 103.99-20.5 102.68-21.66 100.84-22.33 98.99-23 96.7-23L96.7-23Q95.23-23 93.77-22.72 92.3-22.44 90.95-21.92 89.59-21.41 88.41-20.68 87.23-19.95 86.35-19.04L86.35-19.04ZM121.09 0L121.09-28.81 128.31-28.81 128.31-24.66Q130.71-26.44 133.37-27.73 136.03-29.03 138.66-29.71L138.66-29.71 140.79-23.1Q136.61-22.68 133.45-21.23 130.29-19.78 128.31-17.14L128.31-17.14 128.31 0 121.09 0ZM144.79-14.5L144.79-14.5Q144.79-17.43 145.99-20.1 147.18-22.78 149.43-24.83 151.67-26.88 154.93-28.1 158.19-29.32 162.34-29.32L162.34-29.32Q166.47-29.32 169.78-28.09 173.09-26.86 175.39-24.71 177.7-22.56 178.93-19.65 180.17-16.75 180.17-13.43L180.17-13.43Q180.17-13.01 180.15-12.54 180.14-12.06 180.09-11.67L180.09-11.67 152.85-11.67Q153.31-10.38 154.35-9.3 155.39-8.23 156.95-7.45 158.51-6.67 160.56-6.24 162.61-5.81 165.1-5.81L165.1-5.81Q167.59-5.81 170.06-6.34 172.52-6.86 174.77-7.67L174.77-7.67 177.21-2.15Q175.8-1.49 174.34-0.99 172.89-0.49 171.32-0.16 169.74 0.17 168.02 0.34 166.3 0.51 164.39 0.51L164.39 0.51Q159.54 0.51 155.87-0.66 152.21-1.83 149.75-3.86 147.28-5.88 146.03-8.62 144.79-11.35 144.79-14.5ZM152.85-17.31L172.5-17.31Q172.11-18.51 171.29-19.54 170.47-20.58 169.25-21.35 168.03-22.12 166.42-22.56 164.81-23 162.88-23L162.88-23Q160.83-23 159.15-22.53 157.46-22.07 156.19-21.29 154.92-20.51 154.08-19.48 153.24-18.46 152.85-17.31L152.85-17.31ZM185.95-3.37L189.07-8.84Q192-7.08 195.52-6.25 199.04-5.42 202.72-5.42L202.72-5.42Q205.21-5.42 206.87-5.76 208.53-6.1 209.53-6.64 210.53-7.18 210.95-7.86 211.36-8.54 211.36-9.25L211.36-9.25Q211.36-10.28 210.47-11.01 209.58-11.74 207.53-11.74L207.53-11.74Q206.58-11.74 205.48-11.62 204.38-11.5 203.17-11.36 201.97-11.23 200.66-11.11 199.35-10.99 198.01-10.99L198.01-10.99Q195.08-10.99 193.02-11.62 190.95-12.26 189.66-13.35 188.37-14.45 187.78-15.95 187.19-17.46 187.19-19.19L187.19-19.19Q187.19-21.39 188.22-23.24 189.25-25.1 191.15-26.45 193.05-27.81 195.75-28.56 198.45-29.32 201.77-29.32L201.77-29.32Q203.5-29.32 205.4-29.11 207.29-28.91 209.12-28.56 210.95-28.22 212.63-27.77 214.32-27.32 215.61-26.81L215.61-26.81 213.34-21.19Q210.58-22.22 207.84-22.81 205.09-23.41 202.18-23.41L202.18-23.41Q200.16-23.41 198.75-23.11 197.35-22.8 196.47-22.3 195.59-21.8 195.19-21.15 194.79-20.51 194.79-19.8L194.79-19.8Q194.79-19.29 194.99-18.87 195.2-18.46 195.68-18.15 196.15-17.85 196.92-17.69 197.69-17.53 198.82-17.53L198.82-17.53Q199.84-17.53 200.99-17.65 202.14-17.77 203.38-17.91 204.63-18.04 205.96-18.16 207.29-18.29 208.68-18.29L208.68-18.29Q211.27-18.29 213.21-17.68 215.15-17.07 216.42-15.97 217.69-14.87 218.32-13.38 218.96-11.89 218.96-10.13L218.96-10.13Q218.96-7.86 217.91-5.91 216.86-3.96 214.78-2.53 212.71-1.1 209.62-0.29 206.53 0.51 202.48 0.51L202.48 0.51Q199.99 0.51 197.67 0.21 195.35-0.1 193.25-0.62 191.15-1.15 189.31-1.86 187.46-2.56 185.95-3.37L185.95-3.37ZM223.47-3.37L226.6-8.84Q229.53-7.08 233.04-6.25 236.56-5.42 240.24-5.42L240.24-5.42Q242.73-5.42 244.39-5.76 246.05-6.1 247.06-6.64 248.06-7.18 248.47-7.86 248.89-8.54 248.89-9.25L248.89-9.25Q248.89-10.28 248-11.01 247.1-11.74 245.05-11.74L245.05-11.74Q244.1-11.74 243-11.62 241.9-11.5 240.7-11.36 239.49-11.23 238.18-11.11 236.87-10.99 235.53-10.99L235.53-10.99Q232.6-10.99 230.54-11.62 228.48-12.26 227.18-13.35 225.89-14.45 225.3-15.95 224.72-17.46 224.72-19.19L224.72-19.19Q224.72-21.39 225.74-23.24 226.77-25.1 228.67-26.45 230.58-27.81 233.27-28.56 235.97-29.32 239.29-29.32L239.29-29.32Q241.03-29.32 242.92-29.11 244.81-28.91 246.64-28.56 248.47-28.22 250.16-27.77 251.84-27.32 253.13-26.81L253.13-26.81 250.86-21.19Q248.11-22.22 245.36-22.81 242.61-23.41 239.71-23.41L239.71-23.41Q237.68-23.41 236.28-23.11 234.87-22.8 233.99-22.3 233.11-21.8 232.71-21.15 232.31-20.51 232.31-19.8L232.31-19.8Q232.31-19.29 232.52-18.87 232.72-18.46 233.2-18.15 233.68-17.85 234.45-17.69 235.21-17.53 236.34-17.53L236.34-17.53Q237.36-17.53 238.51-17.65 239.66-17.77 240.9-17.91 242.15-18.04 243.48-18.16 244.81-18.29 246.2-18.29L246.2-18.29Q248.79-18.29 250.73-17.68 252.67-17.07 253.94-15.97 255.21-14.87 255.84-13.38 256.48-11.89 256.48-10.13L256.48-10.13Q256.48-7.86 255.43-5.91 254.38-3.96 252.3-2.53 250.23-1.1 247.14-0.29 244.05 0.51 240 0.51L240 0.51Q237.51 0.51 235.19 0.21 232.87-0.1 230.77-0.62 228.67-1.15 226.83-1.86 224.99-2.56 223.47-3.37L223.47-3.37ZM266.78-32.74L266.78-32.74Q265.71-32.74 264.84-33.04 263.97-33.35 263.36-33.87 262.75-34.4 262.42-35.1 262.09-35.79 262.09-36.57L262.09-36.57Q262.09-37.38 262.42-38.07 262.75-38.77 263.36-39.28 263.97-39.79 264.84-40.1 265.71-40.41 266.78-40.41L266.78-40.41Q267.88-40.41 268.74-40.1 269.61-39.79 270.22-39.28 270.83-38.77 271.16-38.07 271.49-37.38 271.49-36.57L271.49-36.57Q271.49-35.79 271.16-35.1 270.83-34.4 270.22-33.87 269.61-33.35 268.74-33.04 267.88-32.74 266.78-32.74ZM263.17 0L263.17-28.81 270.39-28.81 270.39 0 263.17 0ZM277.91-14.4L277.91-14.4Q277.91-17.5 279.17-20.21 280.42-22.92 282.76-24.95 285.09-26.98 288.4-28.15 291.7-29.32 295.83-29.32L295.83-29.32Q299.96-29.32 303.26-28.15 306.57-26.98 308.9-24.95 311.23-22.92 312.49-20.21 313.75-17.5 313.75-14.4L313.75-14.4Q313.75-11.3 312.49-8.59 311.23-5.88 308.9-3.86 306.57-1.83 303.26-0.66 299.96 0.51 295.83 0.51L295.83 0.51Q291.7 0.51 288.4-0.66 285.09-1.83 282.76-3.86 280.42-5.88 279.17-8.59 277.91-11.3 277.91-14.4ZM285.5-14.4L285.5-14.4Q285.5-12.67 286.2-11.12 286.89-9.57 288.22-8.39 289.56-7.2 291.47-6.51 293.39-5.81 295.83-5.81L295.83-5.81Q298.27-5.81 300.19-6.51 302.1-7.2 303.43-8.39 304.77-9.57 305.46-11.12 306.16-12.67 306.16-14.4L306.16-14.4Q306.16-16.14 305.46-17.7 304.77-19.26 303.43-20.45 302.1-21.63 300.19-22.33 298.27-23.02 295.83-23.02L295.83-23.02Q293.39-23.02 291.47-22.33 289.56-21.63 288.22-20.45 286.89-19.26 286.2-17.7 285.5-16.14 285.5-14.4ZM321.05 0L321.05-28.81 328.27-28.81 328.27-26.37Q331.15-28 333.78-28.66 336.4-29.32 338.92-29.32L338.92-29.32Q342.21-29.32 345.02-28.36 347.83-27.39 349.88-25.49 351.93-23.58 353.09-20.74 354.25-17.9 354.25-14.16L354.25-14.16 354.25 0 347.05 0 347.05-12.99Q347.05-15.36 346.38-17.22 345.71-19.09 344.45-20.37 343.19-21.66 341.4-22.33 339.6-23 337.38-23L337.38-23Q336.21-23 334.98-22.75 333.74-22.51 332.56-22.06 331.37-21.61 330.28-20.94 329.18-20.26 328.27-19.41L328.27-19.41 328.27 0 321.05 0ZM383.52-32.74L383.52-32.74Q382.44-32.74 381.58-33.04 380.71-33.35 380.1-33.87 379.49-34.4 379.16-35.1 378.83-35.79 378.83-36.57L378.83-36.57Q378.83-37.38 379.16-38.07 379.49-38.77 380.1-39.28 380.71-39.79 381.58-40.1 382.44-40.41 383.52-40.41L383.52-40.41Q384.62-40.41 385.48-40.1 386.35-39.79 386.96-39.28 387.57-38.77 387.9-38.07 388.23-37.38 388.23-36.57L388.23-36.57Q388.23-35.79 387.9-35.1 387.57-34.4 386.96-33.87 386.35-33.35 385.48-33.04 384.62-32.74 383.52-32.74ZM379.9 0L379.9-28.81 387.13-28.81 387.13 0 379.9 0ZM394.4-3.37L397.53-8.84Q400.46-7.08 403.97-6.25 407.49-5.42 411.18-5.42L411.18-5.42Q413.67-5.42 415.33-5.76 416.99-6.1 417.99-6.64 418.99-7.18 419.4-7.86 419.82-8.54 419.82-9.25L419.82-9.25Q419.82-10.28 418.93-11.01 418.04-11.74 415.99-11.74L415.99-11.74Q415.03-11.74 413.93-11.62 412.84-11.5 411.63-11.36 410.42-11.23 409.11-11.11 407.81-10.99 406.46-10.99L406.46-10.99Q403.53-10.99 401.47-11.62 399.41-12.26 398.11-13.35 396.82-14.45 396.23-15.95 395.65-17.46 395.65-19.19L395.65-19.19Q395.65-21.39 396.67-23.24 397.7-25.1 399.6-26.45 401.51-27.81 404.21-28.56 406.9-29.32 410.22-29.32L410.22-29.32Q411.96-29.32 413.85-29.11 415.74-28.91 417.57-28.56 419.4-28.22 421.09-27.77 422.77-27.32 424.07-26.81L424.07-26.81 421.8-21.19Q419.04-22.22 416.29-22.81 413.54-23.41 410.64-23.41L410.64-23.41Q408.61-23.41 407.21-23.11 405.8-22.8 404.93-22.3 404.05-21.8 403.64-21.15 403.24-20.51 403.24-19.8L403.24-19.8Q403.24-19.29 403.45-18.87 403.66-18.46 404.13-18.15 404.61-17.85 405.38-17.69 406.15-17.53 407.27-17.53L407.27-17.53Q408.3-17.53 409.44-17.65 410.59-17.77 411.84-17.91 413.08-18.04 414.41-18.16 415.74-18.29 417.13-18.29L417.13-18.29Q419.72-18.29 421.66-17.68 423.6-17.07 424.87-15.97 426.14-14.87 426.78-13.38 427.41-11.89 427.41-10.13L427.41-10.13Q427.41-7.86 426.36-5.91 425.31-3.96 423.24-2.53 421.16-1.1 418.07-0.29 414.98 0.51 410.93 0.51L410.93 0.51Q408.44 0.51 406.12 0.21 403.8-0.1 401.7-0.62 399.6-1.15 397.76-1.86 395.92-2.56 394.4-3.37L394.4-3.37ZM450.5 0L450.5-40.48 457.73-40.48 457.73-26.61Q460-27.86 462.79-28.59 465.59-29.32 468.67-29.32L468.67-29.32Q472.23-29.32 475.07-28.27 477.92-27.22 479.9-25.26 481.87-23.29 482.94-20.48 484-17.68 484-14.16L484-14.16 484 0 476.8 0 476.8-13.87Q476.8-15.92 476.14-17.61 475.48-19.31 474.21-20.53 472.94-21.75 471.12-22.42 469.3-23.1 467.01-23.1L467.01-23.1Q464.25-23.1 461.88-22.22 459.51-21.34 457.73-20L457.73-20 457.73 0 450.5 0ZM490.71-9.08L490.71-9.08Q490.71-11.16 491.61-12.87 492.52-14.58 494.32-15.81 496.13-17.04 498.83-17.71 501.53-18.38 505.11-18.38L505.11-18.38Q507.78-18.38 510.72-17.99 513.66-17.6 516.78-16.8L516.78-16.8Q516.66-18.16 515.95-19.32 515.25-20.48 513.99-21.33 512.73-22.17 510.96-22.63 509.19-23.1 506.94-23.1L506.94-23.1Q505.72-23.1 504.26-22.95 502.79-22.8 501.23-22.51 499.67-22.22 498.14-21.78 496.62-21.34 495.3-20.73L495.3-20.73 493.1-26.66Q494.74-27.25 496.61-27.73 498.47-28.22 500.43-28.58 502.38-28.93 504.33-29.13 506.29-29.32 508.12-29.32L508.12-29.32Q516.2-29.32 520.13-25.2 524.06-21.07 524.06-12.55L524.06-12.55 524.06 0 516.83 0 516.83-2.71Q515.71-2.05 514.38-1.46 513.05-0.88 511.49-0.44 509.92 0 508.13 0.26 506.33 0.51 504.33 0.51L504.33 0.51Q500.96 0.51 498.41-0.22 495.86-0.95 494.15-2.25 492.44-3.54 491.58-5.29 490.71-7.03 490.71-9.08ZM498.33-9.33L498.33-9.33Q498.33-8.62 498.69-7.97 499.06-7.32 499.86-6.82 500.67-6.32 501.93-6.02 503.19-5.71 504.97-5.71L504.97-5.71Q506.87-5.71 508.65-6.05 510.44-6.4 511.97-6.96 513.51-7.52 514.76-8.25 516-8.98 516.83-9.77L516.83-9.77 516.83-11.04Q515.17-11.5 513.55-11.82 511.93-12.13 510.45-12.32 508.97-12.5 507.67-12.57 506.36-12.65 505.38-12.65L505.38-12.65Q503.36-12.65 502.01-12.38 500.67-12.11 499.84-11.66 499.01-11.21 498.67-10.6 498.33-9.99 498.33-9.33ZM533.6 0L533.6-28.81 540.83-28.81 540.83-24.66Q543.22-26.44 545.88-27.73 548.54-29.03 551.18-29.71L551.18-29.71 553.3-23.1Q549.13-22.68 545.97-21.23 542.81-19.78 540.83-17.14L540.83-17.14 540.83 0 533.6 0ZM556.45-14.28L556.45-14.28Q556.45-17.72 557.75-20.5 559.04-23.27 561.32-25.23 563.6-27.2 566.74-28.26 569.88-29.32 573.54-29.32L573.54-29.32Q575.1-29.32 576.63-29.13 578.16-28.93 579.56-28.59 580.96-28.25 582.2-27.77 583.43-27.29 584.38-26.73L584.38-26.73 584.38-40.5 591.61-40.5 591.61 0 584.38 0 584.38-2.71Q583.43-2.05 582.14-1.46 580.84-0.88 579.35-0.44 577.86 0 576.26 0.26 574.66 0.51 573.1 0.51L573.1 0.51Q569.44 0.51 566.38-0.56 563.31-1.64 561.11-3.59 558.92-5.54 557.68-8.26 556.45-10.99 556.45-14.28ZM564.04-14.28L564.04-14.28Q564.04-12.55 564.74-11.01 565.44-9.47 566.74-8.31 568.05-7.15 569.89-6.48 571.73-5.81 574.03-5.81L574.03-5.81Q575.49-5.81 576.96-6.09 578.42-6.37 579.78-6.88 581.13-7.4 582.32-8.13 583.5-8.86 584.38-9.77L584.38-9.77 584.38-19.75Q583.28-20.63 582.06-21.24 580.84-21.85 579.57-22.24 578.3-22.63 577.01-22.81 575.71-23 574.49-23L574.49-23Q572-23 570.06-22.33 568.12-21.66 566.79-20.48 565.46-19.31 564.75-17.72 564.04-16.14 564.04-14.28ZM600.59-4.22L600.59-4.22Q600.59-5.2 600.99-6.07 601.4-6.93 602.15-7.58 602.91-8.23 603.98-8.59 605.06-8.96 606.4-8.96L606.4-8.96Q607.74-8.96 608.82-8.59 609.89-8.23 610.64-7.58 611.38-6.93 611.78-6.07 612.19-5.2 612.19-4.22L612.19-4.22Q612.19-3.25 611.78-2.38 611.38-1.51 610.64-0.88 609.89-0.24 608.82 0.13 607.74 0.51 606.4 0.51L606.4 0.51Q605.06 0.51 603.98 0.13 602.91-0.24 602.15-0.88 601.4-1.51 600.99-2.38 600.59-3.25 600.59-4.22ZM650.8 0L633.96-38.16 642.41-38.16 652.76-13.53 655.15-7.57 657.03-13.53 660.84-22.51 653.98-38.16 661.94-38.16 664.74-30.71 667.36-38.16 675.32-38.16 668.46-22.51 672.34-13.33 674.68-7.57 676.49-13.43 686.89-38.16 695.34-38.16 678.49 0 670.82 0 667.43-7.57 664.67-14.92 661.91-7.57 658.47 0 650.8 0ZM698.97-14.5L698.97-14.5Q698.97-17.43 700.17-20.1 701.36-22.78 703.61-24.83 705.86-26.88 709.11-28.1 712.37-29.32 716.52-29.32L716.52-29.32Q720.65-29.32 723.96-28.09 727.27-26.86 729.57-24.71 731.88-22.56 733.11-19.65 734.35-16.75 734.35-13.43L734.35-13.43Q734.35-13.01 734.33-12.54 734.32-12.06 734.27-11.67L734.27-11.67 707.03-11.67Q707.49-10.38 708.53-9.3 709.57-8.23 711.13-7.45 712.69-6.67 714.74-6.24 716.79-5.81 719.28-5.81L719.28-5.81Q721.77-5.81 724.24-6.34 726.71-6.86 728.95-7.67L728.95-7.67 731.39-2.15Q729.98-1.49 728.52-0.99 727.07-0.49 725.5-0.16 723.92 0.17 722.2 0.34 720.48 0.51 718.58 0.51L718.58 0.51Q713.72 0.51 710.05-0.66 706.39-1.83 703.93-3.86 701.46-5.88 700.22-8.62 698.97-11.35 698.97-14.5ZM707.03-17.31L726.68-17.31Q726.29-18.51 725.47-19.54 724.65-20.58 723.43-21.35 722.21-22.12 720.6-22.56 718.99-23 717.06-23L717.06-23Q715.01-23 713.33-22.53 711.64-22.07 710.37-21.29 709.1-20.51 708.26-19.48 707.42-18.46 707.03-17.31L707.03-17.31ZM744.92-23.36L744.92-40.5 751.19-40.5 751.19-23.36 744.92-23.36ZM763.05 0L763.05-28.81 770.28-28.81 770.28-24.66Q772.67-26.44 775.33-27.73 777.99-29.03 780.63-29.71L780.63-29.71 782.75-23.1Q778.58-22.68 775.42-21.23 772.26-19.78 770.28-17.14L770.28-17.14 770.28 0 763.05 0ZM786.76-14.5L786.76-14.5Q786.76-17.43 787.95-20.1 789.15-22.78 791.4-24.83 793.64-26.88 796.9-28.1 800.16-29.32 804.31-29.32L804.31-29.32Q808.44-29.32 811.74-28.09 815.05-26.86 817.36-24.71 819.67-22.56 820.9-19.65 822.13-16.75 822.13-13.43L822.13-13.43Q822.13-13.01 822.12-12.54 822.11-12.06 822.06-11.67L822.06-11.67 794.81-11.67Q795.28-10.38 796.31-9.3 797.35-8.23 798.91-7.45 800.48-6.67 802.53-6.24 804.58-5.81 807.07-5.81L807.07-5.81Q809.56-5.81 812.02-6.34 814.49-6.86 816.74-7.67L816.74-7.67 819.18-2.15Q817.76-1.49 816.31-0.99 814.86-0.49 813.28-0.16 811.71 0.17 809.99 0.34 808.27 0.51 806.36 0.51L806.36 0.51Q801.5 0.51 797.84-0.66 794.18-1.83 791.71-3.86 789.25-5.88 788-8.62 786.76-11.35 786.76-14.5ZM794.81-17.31L814.47-17.31Q814.08-18.51 813.26-19.54 812.44-20.58 811.22-21.35 810-22.12 808.39-22.56 806.78-23 804.85-23L804.85-23Q802.8-23 801.11-22.53 799.43-22.07 798.16-21.29 796.89-20.51 796.05-19.48 795.2-18.46 794.81-17.31L794.81-17.31ZM846.49 0L846.49-40.48 853.72-40.48 853.72-26.61Q855.99-27.86 858.79-28.59 861.58-29.32 864.66-29.32L864.66-29.32Q868.22-29.32 871.07-28.27 873.91-27.22 875.89-25.26 877.86-23.29 878.93-20.48 879.99-17.68 879.99-14.16L879.99-14.16 879.99 0 872.79 0 872.79-13.87Q872.79-15.92 872.13-17.61 871.47-19.31 870.2-20.53 868.93-21.75 867.11-22.42 865.29-23.1 863-23.1L863-23.1Q860.24-23.1 857.87-22.22 855.5-21.34 853.72-20L853.72-20 853.72 0 846.49 0ZM886.7-14.5L886.7-14.5Q886.7-17.43 887.9-20.1 889.09-22.78 891.34-24.83 893.58-26.88 896.84-28.1 900.1-29.32 904.25-29.32L904.25-29.32Q908.38-29.32 911.69-28.09 915-26.86 917.3-24.71 919.61-22.56 920.84-19.65 922.08-16.75 922.08-13.43L922.08-13.43Q922.08-13.01 922.06-12.54 922.05-12.06 922-11.67L922-11.67 894.76-11.67Q895.22-10.38 896.26-9.3 897.3-8.23 898.86-7.45 900.42-6.67 902.47-6.24 904.52-5.81 907.01-5.81L907.01-5.81Q909.5-5.81 911.97-6.34 914.43-6.86 916.68-7.67L916.68-7.67 919.12-2.15Q917.71-1.49 916.25-0.99 914.8-0.49 913.23-0.16 911.65 0.17 909.93 0.34 908.21 0.51 906.3 0.51L906.3 0.51Q901.45 0.51 897.78-0.66 894.12-1.83 891.66-3.86 889.19-5.88 887.95-8.62 886.7-11.35 886.7-14.5ZM894.76-17.31L914.41-17.31Q914.02-18.51 913.2-19.54 912.38-20.58 911.16-21.35 909.94-22.12 908.33-22.56 906.72-23 904.79-23L904.79-23Q902.74-23 901.06-22.53 899.37-22.07 898.1-21.29 896.83-20.51 895.99-19.48 895.15-18.46 894.76-17.31L894.76-17.31ZM929.84 0L929.84-28.81 937.06-28.81 937.06-24.66Q939.46-26.44 942.12-27.73 944.78-29.03 947.42-29.71L947.42-29.71 949.54-23.1Q945.36-22.68 942.2-21.23 939.04-19.78 937.06-17.14L937.06-17.14 937.06 0 929.84 0ZM953.54-14.5L953.54-14.5Q953.54-17.43 954.74-20.1 955.93-22.78 958.18-24.83 960.43-26.88 963.68-28.1 966.94-29.32 971.09-29.32L971.09-29.32Q975.22-29.32 978.53-28.09 981.84-26.86 984.14-24.71 986.45-22.56 987.68-19.65 988.92-16.75 988.92-13.43L988.92-13.43Q988.92-13.01 988.9-12.54 988.89-12.06 988.84-11.67L988.84-11.67 961.6-11.67Q962.06-10.38 963.1-9.3 964.14-8.23 965.7-7.45 967.26-6.67 969.31-6.24 971.36-5.81 973.85-5.81L973.85-5.81Q976.34-5.81 978.81-6.34 981.28-6.86 983.52-7.67L983.52-7.67 985.96-2.15Q984.55-1.49 983.09-0.99 981.64-0.49 980.07-0.16 978.49 0.17 976.77 0.34 975.05 0.51 973.15 0.51L973.15 0.51Q968.29 0.51 964.62-0.66 960.96-1.83 958.5-3.86 956.03-5.88 954.79-8.62 953.54-11.35 953.54-14.5ZM961.6-17.31L981.25-17.31Q980.86-18.51 980.04-19.54 979.22-20.58 978-21.35 976.78-22.12 975.17-22.56 973.56-23 971.63-23L971.63-23Q969.58-23 967.9-22.53 966.21-22.07 964.94-21.29 963.67-20.51 962.83-19.48 961.99-18.46 961.6-17.31L961.6-17.31ZM1017.62 0L1017.62-23.39 1010.66-23.39 1010.66-28.81 1017.62-28.81 1017.62-37.77 1024.85-37.77 1024.85-28.81 1031.81-28.81 1031.81-23.39 1024.85-23.39 1024.85 0 1017.62 0ZM1036.49-14.4L1036.49-14.4Q1036.49-17.5 1037.75-20.21 1039.01-22.92 1041.34-24.95 1043.67-26.98 1046.98-28.15 1050.29-29.32 1054.41-29.32L1054.41-29.32Q1058.54-29.32 1061.85-28.15 1065.15-26.98 1067.49-24.95 1069.82-22.92 1071.07-20.21 1072.33-17.5 1072.33-14.4L1072.33-14.4Q1072.33-11.3 1071.07-8.59 1069.82-5.88 1067.49-3.86 1065.15-1.83 1061.85-0.66 1058.54 0.51 1054.41 0.51L1054.41 0.51Q1050.29 0.51 1046.98-0.66 1043.67-1.83 1041.34-3.86 1039.01-5.88 1037.75-8.59 1036.49-11.3 1036.49-14.4ZM1044.09-14.4L1044.09-14.4Q1044.09-12.67 1044.78-11.12 1045.48-9.57 1046.81-8.39 1048.14-7.2 1050.05-6.51 1051.97-5.81 1054.41-5.81L1054.41-5.81Q1056.85-5.81 1058.77-6.51 1060.69-7.2 1062.02-8.39 1063.35-9.57 1064.04-11.12 1064.74-12.67 1064.74-14.4L1064.74-14.4Q1064.74-16.14 1064.04-17.7 1063.35-19.26 1062.02-20.45 1060.69-21.63 1058.77-22.33 1056.85-23.02 1054.41-23.02L1054.41-23.02Q1051.97-23.02 1050.05-22.33 1048.14-21.63 1046.81-20.45 1045.48-19.26 1044.78-17.7 1044.09-16.14 1044.09-14.4ZM1096.23 0L1096.23-40.48 1103.46-40.48 1103.46-26.61Q1105.73-27.86 1108.52-28.59 1111.32-29.32 1114.39-29.32L1114.39-29.32Q1117.96-29.32 1120.8-28.27 1123.65-27.22 1125.62-25.26 1127.6-23.29 1128.66-20.48 1129.72-17.68 1129.72-14.16L1129.72-14.16 1129.72 0 1122.52 0 1122.52-13.87Q1122.52-15.92 1121.86-17.61 1121.2-19.31 1119.93-20.53 1118.66-21.75 1116.85-22.42 1115.03-23.1 1112.73-23.1L1112.73-23.1Q1109.97-23.1 1107.61-22.22 1105.24-21.34 1103.46-20L1103.46-20 1103.46 0 1096.23 0ZM1136.44-14.5L1136.44-14.5Q1136.44-17.43 1137.63-20.1 1138.83-22.78 1141.07-24.83 1143.32-26.88 1146.58-28.1 1149.84-29.32 1153.99-29.32L1153.99-29.32Q1158.12-29.32 1161.42-28.09 1164.73-26.86 1167.04-24.71 1169.35-22.56 1170.58-19.65 1171.81-16.75 1171.81-13.43L1171.81-13.43Q1171.81-13.01 1171.8-12.54 1171.79-12.06 1171.74-11.67L1171.74-11.67 1144.49-11.67Q1144.96-10.38 1145.99-9.3 1147.03-8.23 1148.59-7.45 1150.16-6.67 1152.21-6.24 1154.26-5.81 1156.75-5.81L1156.75-5.81Q1159.24-5.81 1161.7-6.34 1164.17-6.86 1166.42-7.67L1166.42-7.67 1168.86-2.15Q1167.44-1.49 1165.99-0.99 1164.54-0.49 1162.96-0.16 1161.39 0.17 1159.67 0.34 1157.94 0.51 1156.04 0.51L1156.04 0.51Q1151.18 0.51 1147.52-0.66 1143.86-1.83 1141.39-3.86 1138.93-5.88 1137.68-8.62 1136.44-11.35 1136.44-14.5ZM1144.49-17.31L1164.15-17.31Q1163.76-18.51 1162.94-19.54 1162.12-20.58 1160.9-21.35 1159.68-22.12 1158.07-22.56 1156.46-23 1154.53-23L1154.53-23Q1152.48-23 1150.79-22.53 1149.11-22.07 1147.84-21.29 1146.57-20.51 1145.73-19.48 1144.88-18.46 1144.49-17.31L1144.49-17.31ZM1179.77 0L1179.77-40.5 1186.99-40.5 1186.99 0 1179.77 0ZM1203.28-2.08L1203.28 11.77 1196.05 11.77 1196.05-28.81 1203.28-28.81 1203.28-26.1Q1204.23-26.76 1205.52-27.34 1206.82-27.93 1208.31-28.37 1209.8-28.81 1211.38-29.06 1212.97-29.32 1214.56-29.32L1214.56-29.32Q1218.22-29.32 1221.28-28.25 1224.35-27.17 1226.54-25.22 1228.74-23.27 1229.97-20.54 1231.21-17.82 1231.21-14.53L1231.21-14.53Q1231.21-11.08 1229.91-8.31 1228.62-5.54 1226.34-3.58 1224.05-1.61 1220.92-0.55 1217.78 0.51 1214.12 0.51L1214.12 0.51Q1212.55 0.51 1211.03 0.32 1209.5 0.12 1208.1-0.22 1206.69-0.56 1205.46-1.04 1204.23-1.51 1203.28-2.08L1203.28-2.08ZM1203.28-19.04L1203.28-9.06Q1204.38-8.18 1205.6-7.57 1206.82-6.96 1208.09-6.57 1209.36-6.18 1210.65-5.99 1211.94-5.81 1213.16-5.81L1213.16-5.81Q1215.65-5.81 1217.6-6.48 1219.54-7.15 1220.87-8.33 1222.2-9.5 1222.91-11.08 1223.61-12.67 1223.61-14.53L1223.61-14.53Q1223.61-16.26 1222.92-17.8 1222.22-19.34 1220.92-20.5 1219.61-21.66 1217.77-22.33 1215.92-23 1213.63-23L1213.63-23Q1212.16-23 1210.7-22.72 1209.23-22.44 1207.88-21.92 1206.52-21.41 1205.34-20.68 1204.16-19.95 1203.28-19.04L1203.28-19.04ZM1238.16-4.22L1238.16-4.22Q1238.16-5.2 1238.56-6.07 1238.97-6.93 1239.72-7.58 1240.48-8.23 1241.56-8.59 1242.63-8.96 1243.97-8.96L1243.97-8.96Q1245.32-8.96 1246.39-8.59 1247.46-8.23 1248.21-7.58 1248.95-6.93 1249.36-6.07 1249.76-5.2 1249.76-4.22L1249.76-4.22Q1249.76-3.25 1249.36-2.38 1248.95-1.51 1248.21-0.88 1247.46-0.24 1246.39 0.13 1245.32 0.51 1243.97 0.51L1243.97 0.51Q1242.63 0.51 1241.56 0.13 1240.48-0.24 1239.72-0.88 1238.97-1.51 1238.56-2.38 1238.16-3.25 1238.16-4.22Z" opacity="1" transform="matrix(1,0,0,1,0,0)" fill="#e65728" class="undefined-text-1" data-fill-palette-color="secondary" id="text-1"></path></svg></g></svg></g></svg></g></svg></g><g></g></svg></g><defs></defs></svg><rect width="395.52" height="52.84514500424085" fill="none" stroke="none" visibility="hidden"></rect></g></svg></g></svg>